<svg xmlns="http://www.w3.org/2000/svg" viewBox="0 0 512 512" role="img" aria-label="Open Lounge Phone">
  <title>Open Lounge Phone</title>
  <rect width="512" height="512" rx="112" fill="#2f6f5e"/>
  <!-- a classic handset resting over a small keypad -->
  <path fill="#f6f4ef" d="M112 176c0-26 20-44 48-44h32c14 0 24 10 24 24v20c0 12-8 22-20 24l-14 3c4 20 4 40 0 60l14 3c12 2 20 12 20 24v20c0 14-10 24-24 24h-32c-28 0-48-18-48-44z" transform="rotate(-90 256 256) translate(0 60)"/>
  <g fill="#f2c14e">
    <rect x="164" y="316" width="40" height="40" rx="10"/>
    <rect x="236" y="316" width="40" height="40" rx="10"/>
    <rect x="308" y="316" width="40" height="40" rx="10"/>
    <rect x="164" y="376" width="40" height="40" rx="10"/>
    <rect x="236" y="376" width="40" height="40" rx="10"/>
    <rect x="308" y="376" width="40" height="40" rx="10"/>
  </g>
</svg>
